<svg width="28" height="28" viewBox="0 0 28 28" fill="none" xmlns="http://www.w3.org/2000/svg">
<path d="M23.816 25.8609C23.9232 25.6945 23.9603 25.4924 23.9192 25.2988C23.8781 25.1052 23.7621 24.9357 23.5966 24.8273C22.7856 24.301 21.8447 23.6848 20.8331 22.9895C21.227 21.4072 21.4812 19.7934 21.5928 18.1666C21.7548 15.2923 21.2621 12.9818 20.1259 11.1682C17.9142 7.66449 13.6997 6.8037 10.3089 6.10949C8.22383 5.6841 6.25725 5.28792 5.45244 4.38654C5.35774 4.28112 5.23511 4.20473 5.09877 4.16622C4.96243 4.1277 4.81797 4.12864 4.68214 4.16893C4.54631 4.20922 4.42468 4.28721 4.33135 4.39385C4.23802 4.50049 4.17682 4.63142 4.15484 4.77144C4.06177 5.22424 2.59789 15.6167 8.09172 21.0774C10.8 23.7606 14.6994 24.7538 19.6942 24.0216C20.8191 24.8359 21.8627 25.4955 22.7829 26.0805C22.9492 26.1877 23.1511 26.2248 23.3447 26.1837C23.5382 26.1426 23.7076 26.0265 23.816 25.8609V25.8609ZM9.13467 20.0174C5.25309 16.1793 5.34081 9.16343 5.50282 6.28913C6.93937 6.92235 8.45474 7.35884 10.0079 7.5868C13.2803 8.25182 16.9828 9.00865 18.8575 11.9677C20.29 14.2486 20.5009 17.5644 19.505 22.0511C15.5669 19.2161 11.1242 15.3464 9.74538 10.9135C9.67814 10.7343 9.54494 10.5876 9.37308 10.5035C9.20123 10.4194 9.00372 10.4043 8.82106 10.4612C8.63839 10.5181 8.4844 10.6428 8.39064 10.8096C8.29688 10.9765 8.27046 11.1729 8.31679 11.3586C9.73204 15.9437 13.9503 19.8008 17.8618 22.7094C14.1401 22.9577 11.2188 22.0572 9.15006 20.0108L9.13467 20.0174Z" fill="#359740"/>
</svg>
