<svg width="16" height="16" viewBox="0 0 16 16" fill="none" xmlns="http://www.w3.org/2000/svg">
<path d="M14.6667 6.73337C14.7333 6.40004 14.4667 6.00004 14.1333 6.00004L10.3333 5.46671L8.60001 2.00004C8.53334 1.86671 8.46668 1.80004 8.33334 1.73337C8.00001 1.53337 7.60001 1.66671 7.40001 2.00004L5.73334 5.46671L1.93334 6.00004C1.73334 6.00004 1.60001 6.06671 1.53334 6.20004C1.26668 6.46671 1.26668 6.86671 1.53334 7.13337L4.26668 9.80004L3.60001 13.6C3.60001 13.7334 3.60001 13.8667 3.66668 14C3.86668 14.3334 4.26668 14.4667 4.60001 14.2667L8.00001 12.4667L11.4 14.2667C11.4667 14.3334 11.6 14.3334 11.7333 14.3334C11.8 14.3334 11.8 14.3334 11.8667 14.3334C12.2 14.2667 12.4667 13.9334 12.4 13.5334L11.7333 9.73337L14.4667 7.06671C14.6 7.00004 14.6667 6.86671 14.6667 6.73337Z" fill="#FFCF55"/>
</svg>
